<?xml version="1.0" encoding="utf-8"?>
<!-- Generator: Adobe Illustrator 22.1.0, SVG Export Plug-In . SVG Version: 6.00 Build 0)  -->
<svg version="1.1" id="Layer_1" xmlns="http://www.w3.org/2000/svg" xmlns:xlink="http://www.w3.org/1999/xlink" x="0px" y="0px"
	 viewBox="0 0 282.4 140.1" style="enable-background:new 0 0 282.4 140.1;" xml:space="preserve">
<style type="text/css">
	.st0{fill:#B0B0B0;}
	.st1{fill:#636363;}
	.st2{font-family:'Roboto-Thin';}
	.st3{font-size:9px;}
	.st4{opacity:0.5;fill:none;stroke:#636363;stroke-width:0.25;stroke-miterlimit:10;}
</style>
<rect x="39.8" class="st0" width="187" height="15.2"/>
<rect x="39.8" y="20.5" class="st0" width="151.2" height="15.2"/>
<rect x="39.8" y="41.1" class="st0" width="119.5" height="15.2"/>
<rect x="39.8" y="61.6" class="st0" width="166.1" height="15.2"/>
<rect x="39.8" y="82.2" class="st0" width="124.8" height="15.2"/>
<rect x="39.8" y="103.9" class="st0" width="151.2" height="15.2"/>
<rect x="39.8" y="125" class="st0" width="160.3" height="15.2"/>
<text transform="matrix(1 0 0 1 0 10.075)" class="st1 st2 st3">Nombre</text>
<text transform="matrix(1 0 0 1 0 31.075)" class="st1 st2 st3">Nombre</text>
<text transform="matrix(1 0 0 1 0 52.575)" class="st1 st2 st3">Nombre</text>
<text transform="matrix(1 0 0 1 0 73.075)" class="st1 st2 st3">Nombre</text>
<text transform="matrix(1 0 0 1 0 92.575)" class="st1 st2 st3">Nombre</text>
<text transform="matrix(1 0 0 1 0 114.075)" class="st1 st2 st3">Nombre</text>
<text transform="matrix(1 0 0 1 0 135.575)" class="st1 st2 st3">Nombre</text>
<text transform="matrix(1 0 0 1 264.5 10.325)" class="st1 st2 st3">90%</text>
<text transform="matrix(1 0 0 1 264.5 31.325)" class="st1 st2 st3">70%</text>
<text transform="matrix(1 0 0 1 264.5 52.825)" class="st1 st2 st3">65%</text>
<text transform="matrix(1 0 0 1 264.5 73.325)" class="st1 st2 st3">80%</text>
<text transform="matrix(1 0 0 1 264.5 92.825)" class="st1 st2 st3">65%</text>
<text transform="matrix(1 0 0 1 264.5 114.325)" class="st1 st2 st3">70%</text>
<text transform="matrix(1 0 0 1 264.5 135.825)" class="st1 st2 st3">75%</text>
<rect x="226.9" class="st4" width="10.8" height="15.2"/>
<rect x="191" y="20.5" class="st4" width="46.6" height="15.2"/>
<rect x="159.3" y="41.1" class="st4" width="78.3" height="15.2"/>
<rect x="205.9" y="61.6" class="st4" width="31.7" height="15.2"/>
<rect x="164.7" y="82.2" class="st4" width="72.9" height="15.2"/>
<rect x="191" y="103.9" class="st4" width="46.6" height="15.2"/>
<rect x="198.5" y="125" class="st4" width="39.2" height="15.2"/>
</svg>
